Coordinates
version=1
nRows=16
nColumns=36
inDegrees=yes

Units are S.I. units (second, meters, Newtons, ...)
If the header above contains a line with 'inDegrees', this indicates whether rotational values are in degrees (yes) or radians (no).

endheader
time	pelvis_tilt	pelvis_list	pelvis_rotation	pelvis_tx	pelvis_ty	pelvis_tz	hip_flexion_r	hip_adduction_r	hip_rotation_r	knee_angle_r	knee_angle_r_beta	ankle_angle_r	subtalar_angle_r	mtp_angle_r	hip_flexion_l	hip_adduction_l	hip_rotation_l	knee_angle_l	knee_angle_l_beta	ankle_angle_l	subtalar_angle_l	mtp_angle_l	lumbar_extension	lumbar_bending	lumbar_rotation	arm_flex_r	arm_add_r	arm_rot_r	elbow_flex_r	pro_sup_r	arm_flex_l	arm_add_l	arm_rot_l	elbow_flex_l	pro_sup_l
      3.82916670	      0.78070805	     -2.84490159	      1.60614618	      0.04829701	      0.80526798	     -0.05254121	     47.84964234	    -11.68934088	     -3.76479750	     75.57614624	      1.31905259	     22.44470651	     -9.26260621	     -7.49999987	     50.98623485	    -10.94188838	      6.41643829	     79.14238501	      1.38129520	     23.10977994	     -0.77200182	     -7.49999987	    -58.44267808	      4.50415756	     -2.95315941	      5.04332622	     -5.91206473	    -19.85732797	     40.93767900	     73.42086073	     12.09464249	    -12.13454921	    -17.37171578	     30.48827974	     65.70067606
      3.83333330	      0.25164550	     -2.99961037	      1.61466191	      0.04785488	      0.80263791	     -0.04724357	     48.70580796	    -11.20329347	     -3.79718130	     76.07125925	      1.32769394	     22.89205507	     -9.47666157	     -7.49999987	     52.06046220	    -11.47614665	      6.56247654	     79.68363658	      1.39074182	     22.69827297	     -0.44543702	     -7.49999987	    -58.81373208	      3.96472936	     -2.37241026	      5.46375484	     -5.49266787	    -19.01008668	     40.76765795	     73.54848831	     12.81405530	    -12.27434562	    -16.84964362	     31.22282544	     65.85433922
      3.83750000	     -0.51090254	     -3.11656803	      1.58181707	      0.04871152	      0.79901404	     -0.04609604	     49.92044193	    -10.81501932	     -3.72612603	     76.70554137	      1.33876425	     22.93129537	     -9.95834032	     -7.49999987	     53.50583618	    -11.91792501	      6.65765004	     80.34385612	      1.40226482	     22.76501072	      0.21851959	     -7.49999987	    -58.70506201	      3.49210064	     -2.19766710	      6.21532736	     -5.68079194	    -16.24868219	     39.47269402	     75.50785804	     13.16728302	    -13.02907245	    -14.16783944	     31.27881592	     67.47198424
      3.84166670	     -0.93560366	     -3.18610435	      1.61103207	      0.04917769	      0.79798000	     -0.04180469	     50.66960818	    -10.34321122	     -3.61498762	     77.20429887	      1.34746921	     23.01106691	    -10.36610202	     -7.49999987	     54.41367400	    -12.36815628	      6.65758471	     80.67733532	      1.40808513	     22.34416666	      0.73684237	     -7.49999987	    -59.09380234	      2.99558650	     -1.82643704	      6.93392739	     -5.31106913	    -15.31188653	     38.90837067	     76.47537230	     13.95140188	    -13.43150690	    -12.82630953	     31.29430152	     68.36024601
      3.84583330	     -1.12710843	     -3.21284831	      1.69492769	      0.05118485	      0.79659964	     -0.04177214	     51.05592532	    -10.14703042	     -3.62215638	     77.61505694	      1.35463829	     23.12326034	    -10.79849487	     -7.49999987	     54.77536208	    -12.51059775	      6.71790986	     80.83055077	      1.41075925	     22.18450044	      0.86744039	     -7.49999987	    -59.73139283	      2.74882739	     -1.65866073	      7.44492388	     -4.90950338	    -15.11988612	     39.30354508	     76.20877382	     14.59506713	    -13.50124947	    -12.74706781	     31.84717747	     68.20863269
      3.85000000	     -1.54583620	     -3.16518381	      1.61943589	      0.05159510	      0.79415126	     -0.04035527	     51.75627797	     -9.83909811	     -3.36035597	     78.07454416	      1.36265786	     22.96245002	    -11.72220857	     -7.49999987	     55.48997008	    -12.83987465	      6.62071735	     81.18208949	      1.41689476	     22.05332754	      1.36168247	     -7.49999987	    -59.99378641	      2.28350827	     -1.08442711	      8.73593007	     -5.12461813	    -13.53375002	     37.46457265	     77.71949989	     15.82614944	    -13.71177464	    -10.23012413	     31.37083438	     69.55583853
      3.85416670	     -1.94128612	     -3.19189373	      1.54804371	      0.05052166	      0.79256057	     -0.03915461	     52.50746239	     -9.59887381	     -3.19875357	     78.50533307	      1.37017654	     22.78763853	    -12.33656666	     -7.49999987	     56.29232050	    -12.98722139	      6.65438472	     81.60927151	      1.42435049	     21.92666245	      1.27728419	     -7.49999987	    -60.68527264	      2.03417692	     -0.40268088	     10.09042737	     -5.29408517	    -13.12504902	     36.56151593	     77.75139083	     17.00249410	    -13.29309663	     -9.69083140	     31.61876750	     69.60770415
      3.85833330	     -2.11522756	     -3.12705154	      1.60693482	      0.05490592	      0.78888082	     -0.03813102	     52.93435180	     -9.57041702	     -2.97484514	     79.08938940	      1.38037025	     22.95332107	    -12.49677867	     -7.49999987	     56.73628214	    -13.00001579	      6.72304226	     82.07505147	      1.43247988	     21.98864517	      1.29396585	     -7.49999987	    -61.39638973	      1.98436636	     -0.18041661	     10.95289694	     -5.26610891	    -12.96086541	     36.51241956	     77.81335474	     17.64280856	    -13.10337965	     -9.51307174	     31.79689010	     69.65700277
      3.86250000	     -2.66519222	     -2.99470273	      1.56233205	      0.05234063	      0.78734657	     -0.03924964	     53.93656915	     -9.59673530	     -2.67508938	     79.63039376	      1.38981256	     22.78775036	    -12.82021170	     -7.49999987	     57.61419046	    -12.92604497	      6.47800648	     82.60411208	      1.44171373	     22.08013948	      1.11879304	     -7.49999987	    -61.63796047	      1.71202894	      0.38857971	     12.07875072	     -5.76845122	    -12.26119826	     35.35874703	     78.12624965	     18.56918335	    -12.73545172	     -8.52347434	     31.78861896	     69.91833380
      3.86666670	     -2.67700082	     -2.97735787	      1.61367023	      0.05661475	      0.79039719	     -0.03749302	     53.87637545	     -9.47255211	     -2.51430084	     79.77366866	      1.39231317	     22.47360148	    -13.32532266	     -7.49999987	     57.40666437	    -12.94930654	      6.36331207	     82.55185605	      1.44080169	     22.01919855	      0.81404713	     -7.49999987	    -62.49225278	      1.72515199	      0.59537212	     13.20445917	     -6.27300391	    -10.92795849	     34.93509472	     78.92252856	     19.41186435	    -13.04313892	     -6.23254723	     31.35303221	     70.56169740
      3.87083330	     -2.71600252	     -2.93569850	      1.55143576	      0.05787856	      0.78683338	     -0.04107255	     54.20548697	     -9.65175981	     -2.31303300	     80.35676297	      1.40249009	     22.24239186	    -13.34781197	     -7.49999987	     57.58015493	    -12.89456218	      6.30805204	     83.01170947	      1.44882765	     22.12931555	      0.76836743	     -7.49999987	    -63.36546084	      1.81215800	      0.70488976	     14.26935485	     -6.65830060	    -10.95036810	     35.08520802	     78.94967284	     19.93797206	    -12.66050702	     -6.10671144	     31.47695991	     70.58438770
      3.87500000	     -2.87361167	     -3.06603252	      1.53156441	      0.05825205	      0.78277217	     -0.03603616	     54.68382294	     -9.50162387	     -2.28229562	     80.96835788	      1.41316443	     21.82016130	    -13.91660243	     -7.49999987	     58.10008256	    -13.18911012	      6.50260941	     83.62975259	      1.45961454	     22.13025330	      0.54701937	     -7.49999987	    -63.85482586	      1.60490058	      1.38781483	     14.93727082	     -7.16186113	    -10.44736877	     34.48281092	     79.31651905	     20.76175861	    -12.35968526	     -5.27783857	     31.24419534	     70.81548417
      3.87916670	     -3.19570078	     -3.00671312	      1.43930138	      0.05700813	      0.78218652	     -0.04307227	     55.47164819	     -9.75056962	     -2.10067181	     81.49241132	      1.42231089	     21.61778995	    -13.70379729	     -7.49999987	     58.83775982	    -12.98720124	      6.37243569	     84.25241642	      1.47048207	     21.85956116	      0.03693947	     -7.49999987	    -64.35929283	      1.51694322	      1.49229582	     15.91415911	     -7.73809320	     -9.82913881	     34.18379598	     79.63840817	     21.59810547	    -12.02811087	     -4.61493674	     31.00758016	     70.99704110
      3.88333330	     -3.32029850	     -3.04636757	      1.32208130	      0.06089028	      0.77993316	     -0.04763998	     55.85675930	     -9.96985425	     -1.99237955	     81.93000613	      1.42994836	     21.45565486	    -13.66258580	     -7.49999987	     59.12654039	    -12.86607631	      6.21595020	     84.78223244	      1.47972910	     22.00036263	     -0.11581485	     -7.49999987	    -65.05591213	      1.58624595	      1.41557004	     17.06279506	     -8.24453439	     -9.88224451	     34.46980990	     79.65814419	     22.09818595	    -11.69065554	     -4.50719226	     31.09607459	     71.01940434
      3.88750000	     -3.82139132	     -2.78461852	      1.25414678	      0.06174619	      0.77591594	     -0.05493768	     56.79361893	    -10.85668146	     -1.67581808	     82.50488720	      1.43998193	     21.34241597	    -12.79001187	     -7.49999987	     59.86824278	    -12.05741936	      5.92610359	     85.49844776	      1.49222942	     22.04147688	     -1.00263931	     -7.49999987	    -65.25131028	      1.84600815	      1.18632432	     17.91360388	     -9.14487829	     -9.46526859	     34.55587005	     79.99004161	     22.75895170	    -11.02728524	     -4.11135862	     30.48143333	     71.17403387
      3.89166670	     -4.06355144	     -2.68725322	      1.17983140	      0.06088388	      0.77563581	     -0.05544079	     57.39284666	    -11.47124426	     -1.50350331	     82.85623619	      1.44611413	     20.95321415	    -12.34083065	     -7.49999987	     60.34452929	    -11.48395133	      5.80869831	     86.07025274	      1.50220930	     22.10993138	     -1.41284222	     -7.49999987	    -66.00637697	      2.12690359	      1.16590592	     18.82722957	     -9.73917020	     -9.28062236	     34.78910230	     80.06680728	     23.39073743	    -10.47997634	     -3.97032885	     30.62417673	     71.22843301
